<svg width="65" height="69" fill="none" xmlns="http://www.w3.org/2000/svg"><path d="M62.027 20.049L45.977 3.371A1.212 1.212 0 0045.104 3H21.182a4.86 4.86 0 00-4.855 4.853v20.955H6.632A3.636 3.636 0 003 32.439v18.18a3.636 3.636 0 003.632 3.631h9.695v6.905c0 2.672 2.178 4.845 4.855 4.845H57.51c2.677 0 4.855-2.172 4.855-4.842V20.889c0-.313-.121-.614-.338-.84zM45.404 6.271L58.58 19.96H45.404V6.272zM6.632 51.827a1.21 1.21 0 01-1.209-1.208v-18.18a1.21 1.21 0 011.21-1.208h38.715c.667 0 1.21.542 1.21 1.208v18.18a1.21 1.21 0 01-1.21 1.208H6.632zm53.31 9.331a2.428 2.428 0 01-2.432 2.419H21.182a2.43 2.43 0 01-2.432-2.422V54.25h26.598a3.636 3.636 0 003.633-3.631v-18.18a3.636 3.636 0 00-3.633-3.631H18.75V7.853c0-1.34 1.091-2.43 2.432-2.43h21.799v15.75c0 .67.542 1.212 1.211 1.212h15.75v38.773z" fill="#B8C6C8"/><path d="M19.369 37.749c-.403-.523-.902-.863-1.498-1.019-.388-.104-1.221-.156-2.499-.156H12V46.98h2.101v-3.926h1.37c.952 0 1.678-.05 2.18-.149.369-.08.732-.245 1.09-.493.357-.249.651-.59.883-1.026.232-.435.348-.973.348-1.612 0-.828-.201-1.503-.603-2.026zm-1.8 2.864a1.378 1.378 0 01-.657.511c-.279.11-.832.163-1.66.163h-1.15v-2.953h1.014c.758 0 1.262.024 1.512.071.341.062.623.216.845.462.223.246.334.558.334.937 0 .307-.08.577-.238.81zM30.074 39.417a4.547 4.547 0 00-.994-1.686 3.48 3.48 0 00-1.569-.958c-.454-.133-1.114-.2-1.98-.2h-3.84v10.408h3.953c.777 0 1.396-.074 1.86-.22.62-.2 1.112-.476 1.477-.83.482-.47.854-1.082 1.114-1.84.213-.62.32-1.358.32-2.214 0-.975-.114-1.795-.341-2.46zm-2.045 4.273c-.142.467-.325.802-.55 1.005a1.938 1.938 0 01-.848.433c-.26.066-.684.1-1.27.1h-1.57v-6.894h.945c.856 0 1.431.033 1.725.1a2 2 0 01.972.49c.256.241.454.577.596 1.008.142.43.213 1.048.213 1.852 0 .805-.07 1.44-.213 1.907zM39.345 38.334v-1.76H32.21V46.98h2.102v-4.423h4.344v-1.76h-4.344v-2.464h5.033z" fill="#B8C6C8"/></svg>